<?xml version="1.0" encoding="UTF-8" standalone="no"?>
<!-- Created with Inkscape (http://www.inkscape.org/) -->

<svg
   xmlns:dc="http://purl.org/dc/elements/1.1/"
   xmlns:cc="http://creativecommons.org/ns#"
   xmlns:rdf="http://www.w3.org/1999/02/22-rdf-syntax-ns#"
   xmlns:svg="http://www.w3.org/2000/svg"
   xmlns="http://www.w3.org/2000/svg"
   xmlns:sodipodi="http://sodipodi.sourceforge.net/DTD/sodipodi-0.dtd"
   xmlns:inkscape="http://www.inkscape.org/namespaces/inkscape"
   id="svg2"
   version="1.1"
   inkscape:version="0.48.2 r9819"
   width="865"
   height="830"
   xml:space="preserve"
   sodipodi:docname="area_swissVsForeigners.svg"
   inkscape:export-filename="/Users/nguyendu/Google Drive/swissinfo/2014_07_03_evolutionDeLaPopulationSuisse/Etranger/ink/area_swissVsForeigners.png"
   inkscape:export-xdpi="90"
   inkscape:export-ydpi="90"><metadata
     id="metadata8"><rdf:RDF><cc:Work
         rdf:about=""><dc:format>image/svg+xml</dc:format><dc:type
           rdf:resource="http://purl.org/dc/dcmitype/StillImage" /><dc:title /></cc:Work></rdf:RDF></metadata><defs
     id="defs6"><clipPath
       clipPathUnits="userSpaceOnUse"
       id="clipPath20"><path
         d="m 0,144 720,0 0,576 -720,0 0,-576 z"
         id="path22"
         inkscape:connector-curvature="0" /></clipPath><clipPath
       clipPathUnits="userSpaceOnUse"
       id="clipPath34"><path
         d="m 35.77,181.19 669.83,0 0,461.36 -669.83,0 0,-461.36 z"
         id="path36"
         inkscape:connector-curvature="0" /></clipPath><clipPath
       clipPathUnits="userSpaceOnUse"
       id="clipPath254"><path
         d="M 0,0 720,0 720,144 0,144 0,0 z"
         id="path256"
         inkscape:connector-curvature="0" /></clipPath><clipPath
       clipPathUnits="userSpaceOnUse"
       id="clipPath268"><path
         d="m 49.72,37.19 655.88,0 0,92.41 -655.88,0 0,-92.41 z"
         id="path270"
         inkscape:connector-curvature="0" /></clipPath></defs><sodipodi:namedview
     pagecolor="#ffffff"
     bordercolor="#666666"
     borderopacity="1"
     objecttolerance="10"
     gridtolerance="10"
     guidetolerance="10"
     inkscape:pageopacity="0"
     inkscape:pageshadow="2"
     inkscape:window-width="2560"
     inkscape:window-height="1418"
     id="namedview4"
     showgrid="false"
     inkscape:zoom="1.6935953"
     inkscape:cx="568.61016"
     inkscape:cy="535.71182"
     inkscape:window-x="1280"
     inkscape:window-y="0"
     inkscape:window-maximized="1"
     inkscape:current-layer="layer1" /><g
     id="g10"
     inkscape:groupmode="layer"
     inkscape:label="Figures"
     transform="matrix(1.25,0,0,-1.25,0,830)"><g
   id="g12" /><g
   id="g14" /><g
   id="g16"><g
     id="g18"
     clip-path="url(#clipPath20)" /></g><g
   id="g24" /><g
   id="g26" /><g
   id="g28" /><g
   id="g30"
   transform="translate(-16,-44.8)"><g
     id="g32"
     clip-path="url(#clipPath34)"><path
       d="m 35.77,319.17 42.13,6.77 42.13,9.09 42.13,10.22 33.7,4.12 50.55,22.87 42.13,25.14 42.13,7.36 42.12,10.68 46.34,11.37 37.92,25.54 42.13,40.11 42.12,48.16 42.13,4.55 42.13,25.53 21.06,14.39 4.21,0.91 4.22,0.52 4.21,1.49 4.21,2.62 4.22,0.17 4.21,2.25 4.21,3.29 4.21,2.79 4.22,2.39 4.21,2.43 4.21,3.11 4.21,3.54 4.22,5.07 4.21,3.99 0,-88.29 -4.21,-2.28 -4.22,-2.35 -4.21,-2.15 -4.21,-2.13 -4.21,-1.55 -4.22,-1.57 -4.21,-1.51 -4.21,-1.67 -4.21,-1.63 -4.22,-1.27 -4.21,-1.03 -4.21,-1.07 -4.22,-0.55 -4.21,-0.75 -21.06,-4.07 -42.13,-11.95 -42.13,-13.34 -42.12,-19.92 -42.13,-23.92 -37.92,-22.34 -46.34,-19.1 -42.12,-13.43 -42.13,-15.96 -42.13,-15.53 -50.55,-14.06 -33.7,-3.06 -42.13,-6.74 -42.13,-7.08 -42.13,-4.28 0,4.11 z"
       style="fill:#333366;fill-opacity:1;fill-rule:nonzero;stroke:none"
       id="path38"
       inkscape:connector-curvature="0" /><path
       d="m 35.77,319.18 42.13,6.79 42.13,9.15 42.13,10.21 33.7,4.13 50.55,22.93 42.13,25.26 42.13,7.32 42.12,10.73 46.34,11.5 37.92,25.91 42.13,41.18 42.12,48.48 42.13,5.55 42.13,29.28 21.06,16.6 4.21,1.35 4.22,1.04 4.21,2.08 4.21,3.21 4.22,0.69 4.21,2.8 4.21,4.18 4.21,3.39 4.22,2.46 4.21,2.51 4.21,3.21 4.21,3.88 4.22,5.77 4.21,4.52 0,-15.65 -4.21,-3.99 -4.22,-5.07 -4.21,-3.54 -4.21,-3.11 -4.21,-2.43 -4.22,-2.39 -4.21,-2.79 -4.21,-3.29 -4.21,-2.25 -4.22,-0.17 -4.21,-2.62 -4.21,-1.49 -4.22,-0.52 -4.21,-0.91 -21.06,-14.39 -42.13,-25.53 -42.13,-4.55 -42.12,-48.16 -42.13,-40.11 -37.92,-25.54 -46.34,-11.37 -42.12,-10.68 -42.13,-7.36 -42.13,-25.14 -50.55,-22.87 -33.7,-4.12 -42.13,-10.22 -42.13,-9.09 -42.13,-6.77 0,0.01 z"
       style="fill:#666699;fill-opacity:1;fill-rule:nonzero;stroke:none"
       id="path40"
       inkscape:connector-curvature="0" /><path
       d="m 35.77,315.06 42.13,4.28 42.13,7.08 42.13,6.74 33.7,3.06 50.55,14.06 42.13,15.53 42.13,15.96 42.12,13.43 46.34,19.1 37.92,22.34 42.13,23.92 42.12,19.92 42.13,13.34 42.13,11.95 21.06,4.07 4.21,0.75 4.22,0.55 4.21,1.07 4.21,1.03 4.22,1.27 4.21,1.63 4.21,1.67 4.21,1.51 4.22,1.57 4.21,1.55 4.21,2.13 4.21,2.15 4.22,2.35 4.21,2.28 0,-350.16 -4.21,0 -4.22,0 -4.21,0 -4.21,0 -4.21,0 -4.22,0 -4.21,0 -4.21,0 -4.21,0 -4.22,0 -4.21,0 -4.21,0 -4.22,0 -4.21,0 -21.06,0 -42.13,0 -42.13,0 -42.12,0 -42.13,0 -37.92,0 -46.34,0 -42.12,0 -42.13,0 -42.13,0 -50.55,0 -33.7,0 -42.13,0 -42.13,0 -42.13,0 0,133.87 z"
       style="fill:#ab3d3f;fill-opacity:1;fill-rule:nonzero;stroke:none"
       id="path42"
       inkscape:connector-curvature="0" /></g></g><g
   id="g44" /><g
   id="g46" /><g
   id="g48"
   transform="translate(-9.6,-36.8)"><text
   transform="matrix(1,0,0,-1,22.97,177.62)"
   id="text50"><tspan
     style="font-size:10px;font-variant:normal;font-weight:normal;writing-mode:lr-tb;fill:#000000;fill-opacity:1;fill-rule:nonzero;stroke:none;font-family:Open Sans;-inkscape-font-specification:OpenSans"
     x="0"
     y="0"
     id="tspan52">0</tspan></text>





<text
   transform="matrix(1,0,0,-1,22.97,292.96)"
   id="text54"><tspan
     style="font-size:10px;font-variant:normal;font-weight:normal;writing-mode:lr-tb;fill:#000000;fill-opacity:1;fill-rule:nonzero;stroke:none;font-family:Open Sans;-inkscape-font-specification:OpenSans"
     x="0"
     y="0"
     id="tspan56">2</tspan></text>





<text
   transform="matrix(1,0,0,-1,22.97,408.3)"
   id="text58"><tspan
     style="font-size:10px;font-variant:normal;font-weight:normal;writing-mode:lr-tb;fill:#000000;fill-opacity:1;fill-rule:nonzero;stroke:none;font-family:Open Sans;-inkscape-font-specification:OpenSans"
     x="0"
     y="0"
     id="tspan60">4</tspan></text>





<text
   transform="matrix(1,0,0,-1,22.97,523.64)"
   id="text62"><tspan
     style="font-size:10px;font-variant:normal;font-weight:normal;writing-mode:lr-tb;fill:#000000;fill-opacity:1;fill-rule:nonzero;stroke:none;font-family:Open Sans;-inkscape-font-specification:OpenSans"
     x="0"
     y="0"
     id="tspan64">6</tspan></text>





<text
   transform="matrix(1,0,0,-1,22.97,638.98)"
   id="text66"><tspan
     style="font-size:10px;font-variant:normal;font-weight:normal;writing-mode:lr-tb;fill:#000000;fill-opacity:1;fill-rule:nonzero;stroke:none;font-family:Open Sans;-inkscape-font-specification:OpenSans"
     x="0"
     y="0"
     id="tspan68">8 millions</tspan></text>





</g><g
   id="g70" /><g
   id="g72"
   transform="matrix(1.5610443,0,0,1,-36.068553,-44.8)"><path
     d="m 31.52,181.19 4.25,0"
     style="fill:none;stroke:#000000;stroke-width:0.43000001;stroke-linecap:butt;stroke-linejoin:round;stroke-miterlimit:10;stroke-opacity:1;stroke-dasharray:none"
     id="path74"
     inkscape:connector-curvature="0" /><path
     d="m 31.52,296.53 4.25,0"
     style="fill:none;stroke:#000000;stroke-width:0.43000001;stroke-linecap:butt;stroke-linejoin:round;stroke-miterlimit:10;stroke-opacity:1;stroke-dasharray:none"
     id="path76"
     inkscape:connector-curvature="0" /><path
     d="m 31.52,411.87 4.25,0"
     style="fill:none;stroke:#000000;stroke-width:0.43000001;stroke-linecap:butt;stroke-linejoin:round;stroke-miterlimit:10;stroke-opacity:1;stroke-dasharray:none"
     id="path78"
     inkscape:connector-curvature="0" /><path
     d="m 31.52,527.21 4.25,0"
     style="fill:none;stroke:#000000;stroke-width:0.43000001;stroke-linecap:butt;stroke-linejoin:round;stroke-miterlimit:10;stroke-opacity:1;stroke-dasharray:none"
     id="path80"
     inkscape:connector-curvature="0" /><path
     d="m 31.52,642.55 4.25,0"
     style="fill:none;stroke:#000000;stroke-width:0.43000001;stroke-linecap:butt;stroke-linejoin:round;stroke-miterlimit:10;stroke-opacity:1;stroke-dasharray:none"
     id="path82"
     inkscape:connector-curvature="0" /></g><g
   id="g84" /><g
   id="g86" /><g
   id="g88" /><g
   id="g90" /><g
   id="g92" /><g
   id="g104" /><g
   id="g124" /><g
   id="g126" /><g
   id="g128" /><g
   id="g130" /><g
   id="g132" /><g
   id="g134" /><g
   id="g136" /><g
   id="g138" /><g
   id="g140" /><g
   id="g142" /><g
   id="g144" /><g
   id="g146" /><g
   id="g152" /><g
   id="g160" /><g
   id="g166" /><g
   id="g172" /><g
   id="g178" /><g
   id="g184" /><g
   id="g190" /><g
   id="g196" /><g
   id="g204" /><g
   id="g212" /><g
   id="g220" /><g
   id="g222" /><g
   id="g224" /><g
   id="g226" /><g
   id="g228" /><g
   id="g230" /><g
   id="g232" /><g
   id="g234" /><g
   id="g236" /><g
   id="g244" /><g
   id="g246" /><g
   id="g248" /><g
   id="g250"><g
     id="g252"
     clip-path="url(#clipPath254)" /></g><g
   id="g258" /><g
   id="g260" /><g
   id="g262" /><path
   d="m 24.708617,29.19 664.891393,0"
   style="fill:none;stroke:#efe9e0;stroke-width:0.43294391;stroke-linecap:butt;stroke-linejoin:round;stroke-miterlimit:10;stroke-opacity:1;stroke-dasharray:none"
   id="path272"
   inkscape:connector-curvature="0" /><path
   d="m 24.708617,47.68 664.891393,0"
   style="fill:none;stroke:#efe9e0;stroke-width:0.43294391;stroke-linecap:butt;stroke-linejoin:round;stroke-miterlimit:10;stroke-opacity:1;stroke-dasharray:none"
   id="path274"
   inkscape:connector-curvature="0" /><path
   d="m 24.708617,66.16 664.891393,0"
   style="fill:none;stroke:#efe9e0;stroke-width:0.43294391;stroke-linecap:butt;stroke-linejoin:round;stroke-miterlimit:10;stroke-opacity:1;stroke-dasharray:none"
   id="path276"
   inkscape:connector-curvature="0" /><path
   d="m 24.708617,84.64 664.891393,0"
   style="fill:none;stroke:#efe9e0;stroke-width:0.43294391;stroke-linecap:butt;stroke-linejoin:round;stroke-miterlimit:10;stroke-opacity:1;stroke-dasharray:none"
   id="path278"
   inkscape:connector-curvature="0" /><path
   d="m 24.708617,103.12 664.891393,0"
   style="fill:none;stroke:#efe9e0;stroke-width:0.43294391;stroke-linecap:butt;stroke-linejoin:round;stroke-miterlimit:10;stroke-opacity:1;stroke-dasharray:none"
   id="path280"
   inkscape:connector-curvature="0" /><path
   d="m 24.708617,121.6 664.891393,0"
   style="fill:none;stroke:#efe9e0;stroke-width:0.43294391;stroke-linecap:butt;stroke-linejoin:round;stroke-miterlimit:10;stroke-opacity:1;stroke-dasharray:none"
   id="path282"
   inkscape:connector-curvature="0" /><path
   d="m 24.708617,40.25 41.81675,5.87 41.816753,3.97 41.81675,6.51 33.4534,1.69 50.1801,13.65 41.81675,11.62 41.81675,-16.04 41.81675,-6.01 46.00349,-12.94 37.63001,3 41.81675,17.43 41.81675,23.87 41.81675,-8.81 41.81675,12.11 20.91344,8.53 4.17661,0.28 4.18674,0.25 4.17661,0.51 4.18674,1.33 4.17661,-0.63 4.18674,0.51 4.17661,1.41 4.18674,0.98 4.17661,0.31 4.18674,0.35 4.17661,0.31 4.18674,0.74 4.17661,1.76 4.18674,0.99"
   style="fill:none;stroke:#996666;stroke-width:4.2790966;stroke-linecap:butt;stroke-linejoin:round;stroke-miterlimit:1;stroke-opacity:1;stroke-dasharray:none"
   id="path284"
   inkscape:connector-curvature="0" /><g
   id="g286" /><g
   id="g288" />







<g
   id="g3930"
   transform="translate(-1.259766,1.723721)"><text
   style="font-size:12.08215523px"
   y="-30.628254"
   x="9.723115"
   transform="scale(1.0068463,-0.99320026)"
   id="text292"><tspan
     style="font-size:10.06846237px;font-variant:normal;font-weight:normal;writing-mode:lr-tb;fill:#000000;fill-opacity:1;fill-rule:nonzero;stroke:none;font-family:Open Sans;-inkscape-font-specification:OpenSans"
     x="9.723115 15.482273"
     y="-30.628254"
     sodipodi:role="line"
     id="tspan294">0%</tspan></text>

<text
   style="font-size:12.08215523px"
   y="-67.851364"
   x="3.9639506"
   transform="scale(1.0068463,-0.99320026)"
   id="text300"><tspan
     style="font-size:10.06846237px;font-variant:normal;font-weight:normal;writing-mode:lr-tb;fill:#000000;fill-opacity:1;fill-rule:nonzero;stroke:none;font-family:Open Sans;-inkscape-font-specification:OpenSans"
     x="3.9639506 9.723115 15.482273"
     y="-67.851364"
     sodipodi:role="line"
     id="tspan302">10%</tspan></text>

<text
   style="font-size:12.08215523px"
   y="-105.06444"
   x="3.9639506"
   transform="scale(1.0068463,-0.99320026)"
   id="text308"><tspan
     style="font-size:10.06846237px;font-variant:normal;font-weight:normal;writing-mode:lr-tb;fill:#000000;fill-opacity:1;fill-rule:nonzero;stroke:none;font-family:Open Sans;-inkscape-font-specification:OpenSans"
     x="3.9639506 9.723115 15.482273"
     y="-105.06444"
     sodipodi:role="line"
     id="tspan310">20%</tspan></text>

</g>



<g
   id="g316" /><path
   inkscape:connector-curvature="0"
   id="path320"
   style="fill:none;stroke:#000000;stroke-width:0.43294391;stroke-linecap:butt;stroke-linejoin:round;stroke-miterlimit:10;stroke-opacity:1;stroke-dasharray:none"
   d="m 20.400225,29.19 4.308392,0" /><path
   inkscape:connector-curvature="0"
   id="path324"
   style="fill:none;stroke:#000000;stroke-width:0.43294391;stroke-linecap:butt;stroke-linejoin:round;stroke-miterlimit:10;stroke-opacity:1;stroke-dasharray:none"
   d="m 20.400225,66.16 4.308392,0" /><path
   inkscape:connector-curvature="0"
   id="path328"
   style="fill:none;stroke:#000000;stroke-width:0.43294391;stroke-linecap:butt;stroke-linejoin:round;stroke-miterlimit:10;stroke-opacity:1;stroke-dasharray:none"
   d="m 20.400225,103.12 4.308392,0" /><g
   id="g332" /><g
   id="g334" /><g
   id="g336" /><g
   id="g338" /><g
   id="g340" /><g
   id="g342"
   transform="matrix(1.0137394,0,0,1,-25.694506,-16)"><path
     d="m 49.72,32.94 0,4.25"
     style="fill:none;stroke:#000000;stroke-width:0.43000001;stroke-linecap:butt;stroke-linejoin:round;stroke-miterlimit:10;stroke-opacity:1;stroke-dasharray:none"
     id="path344"
     inkscape:connector-curvature="0" /><path
     d="m 255.97,32.94 0,4.25"
     style="fill:none;stroke:#000000;stroke-width:0.43000001;stroke-linecap:butt;stroke-linejoin:round;stroke-miterlimit:10;stroke-opacity:1;stroke-dasharray:none"
     id="path346"
     inkscape:connector-curvature="0" /><path
     d="m 462.22,32.94 0,4.25"
     style="fill:none;stroke:#000000;stroke-width:0.43000001;stroke-linecap:butt;stroke-linejoin:round;stroke-miterlimit:10;stroke-opacity:1;stroke-dasharray:none"
     id="path348"
     inkscape:connector-curvature="0" /><path
     d="m 668.47,32.94 0,4.25"
     style="fill:none;stroke:#000000;stroke-width:0.43000001;stroke-linecap:butt;stroke-linejoin:round;stroke-miterlimit:10;stroke-opacity:1;stroke-dasharray:none"
     id="path350"
     inkscape:connector-curvature="0" /></g><g
   id="g352" /><g
   id="g354"
   transform="matrix(1.0137394,0,0,1,-25.694506,-16)"><text
   transform="matrix(1,0,0,-1,38.28,22.97)"
   id="text356"><tspan
     style="font-size:10px;font-variant:normal;font-weight:normal;writing-mode:lr-tb;fill:#000000;fill-opacity:1;fill-rule:nonzero;stroke:none;font-family:Open Sans;-inkscape-font-specification:OpenSans"
     x="0 5.7199998 11.44 17.16"
     y="0"
     sodipodi:role="line"
     id="tspan358">1850</tspan></text>





<text
   transform="matrix(1,0,0,-1,244.53,22.97)"
   id="text360"><tspan
     style="font-size:10px;font-variant:normal;font-weight:normal;writing-mode:lr-tb;fill:#000000;fill-opacity:1;fill-rule:nonzero;stroke:none;font-family:Open Sans;-inkscape-font-specification:OpenSans"
     x="0 5.7199998 11.44 17.16"
     y="0"
     sodipodi:role="line"
     id="tspan362">1900</tspan></text>





<text
   transform="matrix(1,0,0,-1,450.78,22.97)"
   id="text364"><tspan
     style="font-size:10px;font-variant:normal;font-weight:normal;writing-mode:lr-tb;fill:#000000;fill-opacity:1;fill-rule:nonzero;stroke:none;font-family:Open Sans;-inkscape-font-specification:OpenSans"
     x="0 5.7199998 11.44 17.16"
     y="0"
     sodipodi:role="line"
     id="tspan366">1950</tspan></text>





<text
   transform="matrix(1,0,0,-1,657.03,22.97)"
   id="text368"><tspan
     style="font-size:10px;font-variant:normal;font-weight:normal;writing-mode:lr-tb;fill:#000000;fill-opacity:1;fill-rule:nonzero;stroke:none;font-family:Open Sans;-inkscape-font-specification:OpenSans"
     x="0 5.7199998 11.44 17.16"
     y="0"
     sodipodi:role="line"
     id="tspan370">2000</tspan></text>





</g><g
   id="g372" /><g
   id="g374" /><g
   id="g376" /><g
   id="g378" /><g
   id="g380" /><g
   id="g382" /><g
   id="g384" /><g
   id="g386" /><g
   id="g388" /><g
   id="g390" /><g
   id="g392" /><g
   id="g394" /><flowRoot
   xml:space="preserve"
   id="flowRoot3938"
   style="font-size:17.5px;font-style:normal;font-variant:normal;font-weight:normal;font-stretch:normal;text-align:start;line-height:125%;letter-spacing:0px;word-spacing:0px;writing-mode:lr-tb;text-anchor:start;fill:#000000;fill-opacity:1;stroke:none;font-family:Open Sans;-inkscape-font-specification:Open Sans"
   transform="matrix(0.8,0,0,-0.8,0,664)"><flowRegion
     id="flowRegion3940"><rect
       id="rect3942"
       width="1173.2505"
       height="943.90094"
       x="-103.97181"
       y="-71.088997" /></flowRegion><flowPara
     id="flowPara3944" /></flowRoot></g><g
     inkscape:groupmode="layer"
     id="layer1"
     inkscape:label="annotations"
     transform="translate(0,-70)"><text
   xml:space="preserve"
   style="font-size:17.5px;font-style:normal;font-variant:normal;font-weight:normal;font-stretch:normal;text-align:start;line-height:125%;letter-spacing:0px;word-spacing:0px;writing-mode:lr-tb;text-anchor:start;fill:#000000;fill-opacity:1;stroke:none;font-family:Open Sans;-inkscape-font-specification:Open Sans"
   x="794.16272"
   y="712.66571"
   id="text3532"
   sodipodi:linespacing="125%"><tspan
     sodipodi:role="line"
     id="tspan3534"
     x="794.16272"
     y="712.66571"
     style="font-size:20px;font-style:normal;font-variant:normal;font-weight:600;font-stretch:normal;text-align:start;line-height:125%;writing-mode:lr-tb;text-anchor:start;fill:#f4d7d7;font-family:Open Sans;-inkscape-font-specification:Open Sans Semi-Bold">Suisse</tspan></text>





<text
   xml:space="preserve"
   style="font-size:17.5px;font-style:normal;font-variant:normal;font-weight:normal;font-stretch:normal;text-align:start;line-height:125%;letter-spacing:0px;word-spacing:0px;writing-mode:lr-tb;text-anchor:start;fill:#000000;fill-opacity:1;stroke:none;font-family:Open Sans;-inkscape-font-specification:Open Sans"
   x="783.31427"
   y="285.99582"
   id="text3532-4"
   sodipodi:linespacing="125%"><tspan
     sodipodi:role="line"
     id="tspan3534-1"
     x="783.31427"
     y="285.99582"
     style="font-size:20px;font-style:normal;font-variant:normal;font-weight:600;font-stretch:normal;text-align:start;line-height:125%;writing-mode:lr-tb;text-anchor:start;fill:#d5d5ff;font-family:Open Sans;-inkscape-font-specification:Open Sans Semi-Bold">Europe</tspan></text>





<text
   xml:space="preserve"
   style="font-size:17.5px;font-style:normal;font-variant:normal;font-weight:normal;font-stretch:normal;text-align:start;line-height:125%;letter-spacing:0px;word-spacing:0px;writing-mode:lr-tb;text-anchor:start;fill:#5f8dd3;fill-opacity:1;stroke:none;font-family:Open Sans;-inkscape-font-specification:Open Sans"
   x="693.34662"
   y="170.6256"
   id="text3532-4-9"
   sodipodi:linespacing="125%"><tspan
     sodipodi:role="line"
     x="693.34662"
     y="170.6256"
     style="font-size:20px;font-style:normal;font-variant:normal;font-weight:600;font-stretch:normal;text-align:start;line-height:125%;writing-mode:lr-tb;text-anchor:start;fill:#5f8dd3;font-family:Open Sans;-inkscape-font-specification:Open Sans Semi-Bold"
     id="tspan3578">non-européenne</tspan></text>





<path
   style="opacity:0.5;fill:none;stroke:#000000;stroke-width:0.93631518px;stroke-linecap:butt;stroke-linejoin:miter;stroke-opacity:1"
   d="m 171.94273,447.5375 0.63981,77.40582"
   id="path3909"
   inkscape:connector-curvature="0" /><text
   xml:space="preserve"
   style="font-size:17.5px;font-style:normal;font-variant:normal;font-weight:normal;font-stretch:normal;text-align:start;line-height:125%;letter-spacing:0px;word-spacing:0px;writing-mode:lr-tb;text-anchor:start;fill:#000000;fill-opacity:1;stroke:none;font-family:Open Sans;-inkscape-font-specification:Open Sans"
   x="69.132591"
   y="367.26999"
   id="text3911"
   sodipodi:linespacing="125%"><tspan
     sodipodi:role="line"
     x="69.132591"
     y="367.26999"
     id="tspan3917"
     style="font-size:14px;font-style:normal;font-variant:normal;font-weight:normal;font-stretch:normal;text-align:start;line-height:125%;writing-mode:lr-tb;text-anchor:start;fill:#4d4d4d;font-family:Open Sans;-inkscape-font-specification:Open Sans">Au XIXe siècle, en raison des conditions de vie difficiles </tspan><tspan
     sodipodi:role="line"
     x="69.132591"
     y="384.76999"
     id="tspan3919"
     style="font-size:14px;font-style:normal;font-variant:normal;font-weight:normal;font-stretch:normal;text-align:start;line-height:125%;writing-mode:lr-tb;text-anchor:start;fill:#4d4d4d;font-family:Open Sans;-inkscape-font-specification:Open Sans">et une faible production agricole, des centaines de </tspan><tspan
     sodipodi:role="line"
     x="69.132591"
     y="402.26999"
     id="tspan3927"
     style="font-size:14px;font-style:normal;font-variant:normal;font-weight:normal;font-stretch:normal;text-align:start;line-height:125%;writing-mode:lr-tb;text-anchor:start;fill:#4d4d4d;font-family:Open Sans;-inkscape-font-specification:Open Sans">milliers de Suisses ont quitté le Vieux-Continent. Autour </tspan><tspan
     sodipodi:role="line"
     x="69.132591"
     y="419.76999"
     style="font-size:14px;font-style:normal;font-variant:normal;font-weight:normal;font-stretch:normal;text-align:start;line-height:125%;writing-mode:lr-tb;text-anchor:start;fill:#4d4d4d;font-family:Open Sans;-inkscape-font-specification:Open Sans"
     id="tspan3947">de 1880, les industriels manquant alors d'ouvriers font </tspan><tspan
     sodipodi:role="line"
     x="69.132591"
     y="437.26999"
     style="font-size:14px;font-style:normal;font-variant:normal;font-weight:normal;font-stretch:normal;text-align:start;line-height:125%;writing-mode:lr-tb;text-anchor:start;fill:#4d4d4d;font-family:Open Sans;-inkscape-font-specification:Open Sans"
     id="tspan3175">appel à des travailleurs étrangers.</tspan></text>




<path
   style="opacity:0.64655175;fill:#e3dbdb;fill-opacity:1;stroke:#ffffff;stroke-width:1.00865436px;stroke-linecap:butt;stroke-linejoin:miter;stroke-opacity:1"
   d="m 293.26714,491.37097 0.63981,89.82851"
   id="path3909-9"
   inkscape:connector-curvature="0" /><text
   xml:space="preserve"
   style="font-size:17.5px;font-style:normal;font-variant:normal;font-weight:normal;font-stretch:normal;text-align:start;line-height:125%;letter-spacing:0px;word-spacing:0px;writing-mode:lr-tb;text-anchor:start;fill:#000000;fill-opacity:1;stroke:none;font-family:Open Sans;-inkscape-font-specification:Open Sans"
   x="268.19971"
   y="598.70093"
   id="text4004"
   sodipodi:linespacing="125%"><tspan
     sodipodi:role="line"
     id="tspan4006"
     x="268.19971"
     y="598.70093"
     style="font-size:14px;fill:#ffffff">En 1900, 97% des étrangers </tspan><tspan
     sodipodi:role="line"
     x="268.19971"
     y="616.20093"
     id="tspan4008"
     style="font-size:14px;fill:#ffffff">proviennent des pays voisins </tspan><tspan
     sodipodi:role="line"
     x="268.19971"
     y="633.70093"
     id="tspan4010"
     style="font-size:14px;fill:#ffffff">(Allemagne, France, Italie, Autriche)</tspan></text>




<path
   style="opacity:0.5;fill:none;stroke:#000000;stroke-width:0.97155368;stroke-linecap:butt;stroke-linejoin:miter;stroke-miterlimit:4;stroke-opacity:1;stroke-dasharray:none"
   d="m 552.94906,251.33006 0.63981,132.72765"
   id="path3909-6"
   inkscape:connector-curvature="0" /><text
   xml:space="preserve"
   style="font-size:17.5px;font-style:normal;font-variant:normal;font-weight:normal;font-stretch:normal;text-align:start;line-height:125%;letter-spacing:0px;word-spacing:0px;writing-mode:lr-tb;text-anchor:start;fill:#000000;fill-opacity:1;stroke:none;font-family:Open Sans;-inkscape-font-specification:Open Sans"
   x="312.54437"
   y="190.70773"
   id="text4030"
   sodipodi:linespacing="125%"><tspan
     sodipodi:role="line"
     x="312.54437"
     y="190.70773"
     id="tspan4034"
     style="font-size:14px;fill:#4d4d4d">Dès 1950, une importante immigration est rendue </tspan><tspan
     sodipodi:role="line"
     x="312.54437"
     y="208.20773"
     id="tspan4038"
     style="font-size:14px;fill:#4d4d4d">nécessaire de par la pénurie de main d'œuvre suisse et </tspan><tspan
     sodipodi:role="line"
     x="312.54437"
     y="225.70773"
     style="font-size:14px;fill:#4d4d4d"
     id="tspan4058">pour la réalisation des grands chantiers (tunnels, </tspan><tspan
     sodipodi:role="line"
     x="312.54437"
     y="243.20773"
     id="tspan4040"
     style="font-size:14px;fill:#4d4d4d">barrages et autoroutes, ainsi que construction en général)</tspan></text>




<text
   xml:space="preserve"
   style="font-size:17.5px;font-style:normal;font-variant:normal;font-weight:normal;font-stretch:normal;text-align:start;line-height:125%;letter-spacing:0px;word-spacing:0px;writing-mode:lr-tb;text-anchor:start;fill:#996666;fill-opacity:1;stroke:none;font-family:Open Sans;-inkscape-font-specification:Open Sans"
   x="613.78107"
   y="833.57898"
   id="text3135"
   sodipodi:linespacing="125%"><tspan
     sodipodi:role="line"
     id="tspan3137"
     x="613.78107"
     y="833.57898"
     style="font-size:13px;font-style:normal;font-variant:normal;font-weight:600;font-stretch:normal;text-align:start;line-height:125%;writing-mode:lr-tb;text-anchor:start;fill:#996666;fill-opacity:1;font-family:Open Sans;-inkscape-font-specification:Open Sans Semi-Bold">Proportion de la population étrangère</tspan></text>




<text
   xml:space="preserve"
   style="font-size:17.5px;font-style:normal;font-variant:normal;font-weight:normal;font-stretch:normal;text-align:start;line-height:125%;letter-spacing:0px;word-spacing:0px;writing-mode:lr-tb;text-anchor:start;fill:#000000;fill-opacity:1;stroke:none;font-family:Open Sans;-inkscape-font-specification:Open Sans"
   x="150.20123"
   y="24.127741"
   id="text4081"
   sodipodi:linespacing="125%"><tspan
     sodipodi:role="line"
     id="tspan4083"
     x="150.20123"
     y="24.127741" /></text>




<g
   id="g238"
   transform="matrix(1.25,0,0,-1.25,-33.392647,973.62515)"><text
   transform="matrix(1,0,0,-1,35.77,692)"
   id="text240"
   sodipodi:linespacing="125%"
   style="line-height:125%"><tspan
     style="font-size:22.39999962px;font-style:normal;font-variant:normal;font-weight:600;font-stretch:normal;text-align:start;line-height:125%;writing-mode:lr-tb;text-anchor:start;fill:#000000;fill-opacity:1;fill-rule:nonzero;stroke:none;font-family:Open Sans;-inkscape-font-specification:Open Sans Semi-Bold"
     sodipodi:role="line"
     id="tspan242"
     x="0"
     y="0">Nationalité de la population résidente en Suisse de 1850−2009</tspan></text>




</g></g></svg>