<?xml version="1.0" encoding="UTF-8" standalone="no"?>
<!-- Created with Inkscape (http://www.inkscape.org/) -->

<svg
   xmlns:dc="http://purl.org/dc/elements/1.1/"
   xmlns:cc="http://creativecommons.org/ns#"
   xmlns:rdf="http://www.w3.org/1999/02/22-rdf-syntax-ns#"
   xmlns:svg="http://www.w3.org/2000/svg"
   xmlns="http://www.w3.org/2000/svg"
   xmlns:sodipodi="http://sodipodi.sourceforge.net/DTD/sodipodi-0.dtd"
   xmlns:inkscape="http://www.inkscape.org/namespaces/inkscape"
   id="svg2"
   version="1.1"
   inkscape:version="0.48.2 r9819"
   width="900"
   height="1080"
   xml:space="preserve"
   sodipodi:docname="areaChart_europeanCountries.svg"><metadata
     id="metadata8"><rdf:RDF><cc:Work
         rdf:about=""><dc:format>image/svg+xml</dc:format><dc:type
           rdf:resource="http://purl.org/dc/dcmitype/StillImage" /></cc:Work></rdf:RDF></metadata><defs
     id="defs6"><clipPath
   clipPathUnits="userSpaceOnUse"
   id="clipPath24"><path
     d="m 58.54,569.73 249.05,0 0,248.33 -249.05,0 0,-248.33 z"
     id="path26" /></clipPath><clipPath
   clipPathUnits="userSpaceOnUse"
   id="clipPath46"><path
     d="m 311.19,569.73 249.05,0 0,248.33 -249.05,0 0,-248.33 z"
     id="path48" /></clipPath><clipPath
   clipPathUnits="userSpaceOnUse"
   id="clipPath68"><path
     d="m 58.54,303.46 249.05,0 0,248.33 -249.05,0 0,-248.33 z"
     id="path70" /></clipPath><clipPath
   clipPathUnits="userSpaceOnUse"
   id="clipPath90"><path
     d="m 311.19,303.46 249.05,0 0,248.33 -249.05,0 0,-248.33 z"
     id="path92" /></clipPath><clipPath
   clipPathUnits="userSpaceOnUse"
   id="clipPath112"><path
     d="m 58.54,37.19 249.05,0 0,248.33 -249.05,0 0,-248.33 z"
     id="path114" /></clipPath><clipPath
   clipPathUnits="userSpaceOnUse"
   id="clipPath134"><path
     d="m 311.19,37.19 249.05,0 0,248.33 -249.05,0 0,-248.33 z"
     id="path136" /></clipPath>





</defs><sodipodi:namedview
     pagecolor="#ffffff"
     bordercolor="#666666"
     borderopacity="1"
     objecttolerance="10"
     gridtolerance="10"
     guidetolerance="10"
     inkscape:pageopacity="0"
     inkscape:pageshadow="2"
     inkscape:window-width="1280"
     inkscape:window-height="778"
     id="namedview4"
     showgrid="false"
     inkscape:zoom="0.87407407"
     inkscape:cx="320.5635"
     inkscape:cy="219.66101"
     inkscape:window-x="0"
     inkscape:window-y="0"
     inkscape:window-maximized="1"
     inkscape:current-layer="g10" /><g
     id="g10"
     inkscape:groupmode="layer"
     inkscape:label="Figures"
     transform="matrix(1.25,0,0,-1.25,0,1080)"><g
       id="g12"
       transform="translate(17.6,-6.4)" /><g
       id="g14"
       transform="translate(17.6,-6.4)" /><g
       id="g16"
       transform="translate(17.6,-6.4)" /><g
       id="g18"
       transform="translate(17.6,-6.4)" /><g
       id="g20"
       transform="translate(17.6,-6.4)"><g
         id="g22"
         clip-path="url(#clipPath24)"><path
           d="m 58.54,581.02 249.05,0"
           style="fill:none;stroke:#e5e5e5;stroke-width:0.43000001;stroke-linecap:butt;stroke-linejoin:round;stroke-miterlimit:10;stroke-opacity:1;stroke-dasharray:none"
           id="path28"
           inkscape:connector-curvature="0" /><path
           d="m 58.54,658.35 249.05,0"
           style="fill:none;stroke:#e5e5e5;stroke-width:0.43000001;stroke-linecap:butt;stroke-linejoin:round;stroke-miterlimit:10;stroke-opacity:1;stroke-dasharray:none"
           id="path30"
           inkscape:connector-curvature="0" /><path
           d="m 58.54,735.69 249.05,0"
           style="fill:none;stroke:#e5e5e5;stroke-width:0.43000001;stroke-linecap:butt;stroke-linejoin:round;stroke-miterlimit:10;stroke-opacity:1;stroke-dasharray:none"
           id="path32"
           inkscape:connector-curvature="0" /><path
           d="m 58.54,813.02 249.05,0"
           style="fill:none;stroke:#e5e5e5;stroke-width:0.43000001;stroke-linecap:butt;stroke-linejoin:round;stroke-miterlimit:10;stroke-opacity:1;stroke-dasharray:none"
           id="path34"
           inkscape:connector-curvature="0" /><path
           d="m 69.86,591.97 14.24,7.53 14.24,3.66 14.24,14.7 11.39,6.6 17.09,21.7 14.24,19.75 14.24,-26.95 14.24,-5.91 15.66,-21.76 12.82,-8.83 14.24,14.68 14.24,9.62 14.24,-11.75 14.24,-0.66 7.12,4.14 1.42,0.75 1.42,0.96 1.43,1.08 1.42,2.26 1.43,3.25 1.42,3.37 1.42,4.7 1.43,4.59 1.42,4.96 1.42,6.67 1.43,7.85 1.42,8.83 1.43,10.52 1.42,5.57 0,-102.83 -1.42,0 -1.43,0 -1.42,0 -1.43,0 -1.42,0 -1.42,0 -1.43,0 -1.42,0 -1.42,0 -1.43,0 -1.42,0 -1.43,0 -1.42,0 -1.42,0 -7.12,0 -14.24,0 -14.24,0 -14.24,0 -14.24,0 -12.82,0 -15.66,0 -14.24,0 -14.24,0 -14.24,0 -17.09,0 -11.39,0 -14.24,0 -14.24,0 -14.24,0 0,10.95 z"
           style="fill:#336666;fill-opacity:1;fill-rule:nonzero;stroke:none"
           id="path36"
           inkscape:connector-curvature="0" /><path
           d="m 58.54,569.73 249.05,0 0,248.33 -249.05,0 0,-248.33 z"
           style="fill:none;stroke:#7f7f7f;stroke-width:1.05999994;stroke-linecap:round;stroke-linejoin:round;stroke-miterlimit:10;stroke-opacity:1;stroke-dasharray:none"
           id="path38"
           inkscape:connector-curvature="0" /></g></g><g
       id="g40"
       transform="translate(17.6,-6.4)" /><g
       id="g42"
       transform="translate(17.6,-6.4)"><g
         id="g44"
         clip-path="url(#clipPath46)"><path
           d="m 311.19,581.02 249.05,0"
           style="fill:none;stroke:#e5e5e5;stroke-width:0.43000001;stroke-linecap:butt;stroke-linejoin:round;stroke-miterlimit:10;stroke-opacity:1;stroke-dasharray:none"
           id="path50"
           inkscape:connector-curvature="0" /><path
           d="m 311.19,658.35 249.05,0"
           style="fill:none;stroke:#e5e5e5;stroke-width:0.43000001;stroke-linecap:butt;stroke-linejoin:round;stroke-miterlimit:10;stroke-opacity:1;stroke-dasharray:none"
           id="path52"
           inkscape:connector-curvature="0" /><path
           d="m 311.19,735.69 249.05,0"
           style="fill:none;stroke:#e5e5e5;stroke-width:0.43000001;stroke-linecap:butt;stroke-linejoin:round;stroke-miterlimit:10;stroke-opacity:1;stroke-dasharray:none"
           id="path54"
           inkscape:connector-curvature="0" /><path
           d="m 311.19,813.02 249.05,0"
           style="fill:none;stroke:#e5e5e5;stroke-width:0.43000001;stroke-linecap:butt;stroke-linejoin:round;stroke-miterlimit:10;stroke-opacity:1;stroke-dasharray:none"
           id="path56"
           inkscape:connector-curvature="0" /><path
           d="m 322.51,583.39 14.24,2.98 14.24,1.64 14.24,9.07 11.39,0.14 17.09,29.06 14.24,33.16 14.24,-26.36 14.24,-2.92 15.66,-12.01 12.81,17.11 14.24,79.63 14.24,91.89 14.24,-63.75 14.24,-13.84 7.12,-6.98 1.43,-3.62 1.42,-3.18 1.42,-3.34 1.43,-2.6 1.42,-2.44 1.43,-2.31 1.42,-1.68 1.42,-1.39 1.43,-1.64 1.42,-1.65 1.42,-1.7 1.43,-1.38 1.42,-0.17 1.43,-0.43 0,-113.66 -1.43,0 -1.42,0 -1.43,0 -1.42,0 -1.42,0 -1.43,0 -1.42,0 -1.42,0 -1.43,0 -1.42,0 -1.43,0 -1.42,0 -1.42,0 -1.43,0 -7.12,0 -14.24,0 -14.24,0 -14.24,0 -14.24,0 -12.81,0 -15.66,0 -14.24,0 -14.24,0 -14.24,0 -17.09,0 -11.39,0 -14.24,0 -14.24,0 -14.24,0 0,2.37 z"
           style="fill:#366096;fill-opacity:1;fill-rule:nonzero;stroke:none"
           id="path58"
           inkscape:connector-curvature="0" /><path
           d="m 311.19,569.73 249.05,0 0,248.33 -249.05,0 0,-248.33 z"
           style="fill:none;stroke:#7f7f7f;stroke-width:1.05999994;stroke-linecap:round;stroke-linejoin:round;stroke-miterlimit:10;stroke-opacity:1;stroke-dasharray:none"
           id="path60"
           inkscape:connector-curvature="0" /></g></g><g
       id="g62"
       transform="translate(17.6,-6.4)" /><g
       id="g64"
       transform="translate(17.6,-6.4)"><g
         id="g66"
         clip-path="url(#clipPath68)"><path
           d="m 58.54,314.75 249.05,0"
           style="fill:none;stroke:#e5e5e5;stroke-width:0.43000001;stroke-linecap:butt;stroke-linejoin:round;stroke-miterlimit:10;stroke-opacity:1;stroke-dasharray:none"
           id="path72"
           inkscape:connector-curvature="0" /><path
           d="m 58.54,392.09 249.05,0"
           style="fill:none;stroke:#e5e5e5;stroke-width:0.43000001;stroke-linecap:butt;stroke-linejoin:round;stroke-miterlimit:10;stroke-opacity:1;stroke-dasharray:none"
           id="path74"
           inkscape:connector-curvature="0" /><path
           d="m 58.54,469.42 249.05,0"
           style="fill:none;stroke:#e5e5e5;stroke-width:0.43000001;stroke-linecap:butt;stroke-linejoin:round;stroke-miterlimit:10;stroke-opacity:1;stroke-dasharray:none"
           id="path76"
           inkscape:connector-curvature="0" /><path
           d="m 58.54,546.75 249.05,0"
           style="fill:none;stroke:#e5e5e5;stroke-width:0.43000001;stroke-linecap:butt;stroke-linejoin:round;stroke-miterlimit:10;stroke-opacity:1;stroke-dasharray:none"
           id="path78"
           inkscape:connector-curvature="0" /><path
           d="m 69.86,314.75 14.24,0 14.24,0 14.24,0.01 11.39,0 17.09,0.02 14.24,0.03 14.24,0 14.24,-0.01 15.66,-0.02 12.82,0.04 14.24,0.08 14.24,1.26 14.24,5.92 14.24,35.33 7.12,12.41 1.42,0.74 1.42,-0.41 1.43,-0.97 1.42,-0.12 1.43,0.4 1.42,0.72 1.42,3.28 1.43,4.99 1.42,3.3 1.42,2.9 1.43,2.42 1.42,2.42 1.43,4.74 1.42,2.97 0,-82.45 -1.42,0 -1.43,0 -1.42,0 -1.43,0 -1.42,0 -1.42,0 -1.43,0 -1.42,0 -1.42,0 -1.43,0 -1.42,0 -1.43,0 -1.42,0 -1.42,0 -7.12,0 -14.24,0 -14.24,0 -14.24,0 -14.24,0 -12.82,0 -15.66,0 -14.24,0 -14.24,0 -14.24,0 -17.09,0 -11.39,0 -14.24,0 -14.24,0 -14.24,0 z"
           style="fill:#666699;fill-opacity:1;fill-rule:nonzero;stroke:none"
           id="path80"
           inkscape:connector-curvature="0" /><path
           d="m 58.54,303.46 249.05,0 0,248.33 -249.05,0 0,-248.33 z"
           style="fill:none;stroke:#7f7f7f;stroke-width:1.05999994;stroke-linecap:round;stroke-linejoin:round;stroke-miterlimit:10;stroke-opacity:1;stroke-dasharray:none"
           id="path82"
           inkscape:connector-curvature="0" /></g></g><g
       id="g84"
       transform="translate(17.6,-6.4)" /><g
       id="g86"
       transform="translate(17.6,-6.4)"><g
         id="g88"
         clip-path="url(#clipPath90)"><path
           d="m 311.19,314.75 249.05,0"
           style="fill:none;stroke:#e5e5e5;stroke-width:0.43000001;stroke-linecap:butt;stroke-linejoin:round;stroke-miterlimit:10;stroke-opacity:1;stroke-dasharray:none"
           id="path94"
           inkscape:connector-curvature="0" /><path
           d="m 311.19,392.09 249.05,0"
           style="fill:none;stroke:#e5e5e5;stroke-width:0.43000001;stroke-linecap:butt;stroke-linejoin:round;stroke-miterlimit:10;stroke-opacity:1;stroke-dasharray:none"
           id="path96"
           inkscape:connector-curvature="0" /><path
           d="m 311.19,469.42 249.05,0"
           style="fill:none;stroke:#e5e5e5;stroke-width:0.43000001;stroke-linecap:butt;stroke-linejoin:round;stroke-miterlimit:10;stroke-opacity:1;stroke-dasharray:none"
           id="path98"
           inkscape:connector-curvature="0" /><path
           d="m 311.19,546.75 249.05,0"
           style="fill:none;stroke:#e5e5e5;stroke-width:0.43000001;stroke-linecap:butt;stroke-linejoin:round;stroke-miterlimit:10;stroke-opacity:1;stroke-dasharray:none"
           id="path100"
           inkscape:connector-curvature="0" /><path
           d="m 322.51,314.75 14.24,0.03 14.24,0.11 14.24,-0.04 11.39,0.03 17.09,0.13 14.24,0.12 14.24,0.05 14.24,0.08 15.66,-0.1 12.81,0.06 14.24,4.76 14.24,41.65 14.24,-5.31 14.24,6.43 7.12,-8.07 1.43,-1.52 1.42,-1.43 1.42,-1.44 1.43,-1.42 1.42,-1.26 1.43,-0.93 1.42,-0.73 1.42,-0.78 1.43,-1 1.42,-1.14 1.42,-1.21 1.43,-1.35 1.42,-0.29 1.43,-0.03 0,-25.4 -1.43,0 -1.42,0 -1.43,0 -1.42,0 -1.42,0 -1.43,0 -1.42,0 -1.42,0 -1.43,0 -1.42,0 -1.43,0 -1.42,0 -1.42,0 -1.43,0 -7.12,0 -14.24,0 -14.24,0 -14.24,0 -14.24,0 -12.81,0 -15.66,0 -14.24,0 -14.24,0 -14.24,0 -17.09,0 -11.39,0 -14.24,0 -14.24,0 -14.24,0 z"
           style="fill:#663333;fill-opacity:1;fill-rule:nonzero;stroke:none"
           id="path102"
           inkscape:connector-curvature="0" /><path
           d="m 311.19,303.46 249.05,0 0,248.33 -249.05,0 0,-248.33 z"
           style="fill:none;stroke:#7f7f7f;stroke-width:1.05999994;stroke-linecap:round;stroke-linejoin:round;stroke-miterlimit:10;stroke-opacity:1;stroke-dasharray:none"
           id="path104"
           inkscape:connector-curvature="0" /></g></g><g
       id="g106"
       transform="translate(17.6,-6.4)" /><g
       id="g108"
       transform="translate(17.6,-6.4)"><g
         id="g110"
         clip-path="url(#clipPath112)"><path
           d="m 58.54,48.48 249.05,0"
           style="fill:none;stroke:#e5e5e5;stroke-width:0.43000001;stroke-linecap:butt;stroke-linejoin:round;stroke-miterlimit:10;stroke-opacity:1;stroke-dasharray:none"
           id="path116"
           inkscape:connector-curvature="0" /><path
           d="m 58.54,125.82 249.05,0"
           style="fill:none;stroke:#e5e5e5;stroke-width:0.43000001;stroke-linecap:butt;stroke-linejoin:round;stroke-miterlimit:10;stroke-opacity:1;stroke-dasharray:none"
           id="path118"
           inkscape:connector-curvature="0" /><path
           d="m 58.54,203.15 249.05,0"
           style="fill:none;stroke:#e5e5e5;stroke-width:0.43000001;stroke-linecap:butt;stroke-linejoin:round;stroke-miterlimit:10;stroke-opacity:1;stroke-dasharray:none"
           id="path120"
           inkscape:connector-curvature="0" /><path
           d="m 58.54,280.48 249.05,0"
           style="fill:none;stroke:#e5e5e5;stroke-width:0.43000001;stroke-linecap:butt;stroke-linejoin:round;stroke-miterlimit:10;stroke-opacity:1;stroke-dasharray:none"
           id="path122"
           inkscape:connector-curvature="0" /><path
           d="m 69.86,48.48 14.24,0 14.24,0 14.24,0 11.39,0.01 17.09,0.02 14.24,0.08 14.24,0.37 14.24,-0.06 15.66,-0.17 12.82,0.1 14.24,0.1 14.24,9.21 14.24,13.9 14.24,43.25 7.12,60.89 1.42,4.48 1.42,3.09 1.43,6.73 1.42,10.26 1.43,-9.94 1.42,-0.18 1.42,1.25 1.43,-0.77 1.42,-1.94 1.42,-2.83 1.43,-4.24 1.42,-3.52 1.43,-3.42 1.42,-2.74 0,-123.93 -1.42,0 -1.43,0 -1.42,0 -1.43,0 -1.42,0 -1.42,0 -1.43,0 -1.42,0 -1.42,0 -1.43,0 -1.42,0 -1.43,0 -1.42,0 -1.42,0 -7.12,0 -14.24,0 -14.24,0 -14.24,0 -14.24,0 -12.82,0 -15.66,0 -14.24,0 -14.24,0 -14.24,0 -17.09,0 -11.39,0 -14.24,0 -14.24,0 -14.24,0 z"
           style="fill:#ab3d3f;fill-opacity:1;fill-rule:nonzero;stroke:none"
           id="path124"
           inkscape:connector-curvature="0" /><path
           d="m 58.54,37.19 249.05,0 0,248.33 -249.05,0 0,-248.33 z"
           style="fill:none;stroke:#7f7f7f;stroke-width:1.05999994;stroke-linecap:round;stroke-linejoin:round;stroke-miterlimit:10;stroke-opacity:1;stroke-dasharray:none"
           id="path126"
           inkscape:connector-curvature="0" /></g></g><g
       id="g128"
       transform="translate(17.6,-6.4)" /><g
       id="g130"
       transform="translate(17.6,-6.4)"><g
         id="g132"
         clip-path="url(#clipPath134)"><path
           d="m 311.19,48.48 249.05,0"
           style="fill:none;stroke:#e5e5e5;stroke-width:0.43000001;stroke-linecap:butt;stroke-linejoin:round;stroke-miterlimit:10;stroke-opacity:1;stroke-dasharray:none"
           id="path138"
           inkscape:connector-curvature="0" /><path
           d="m 311.19,125.82 249.05,0"
           style="fill:none;stroke:#e5e5e5;stroke-width:0.43000001;stroke-linecap:butt;stroke-linejoin:round;stroke-miterlimit:10;stroke-opacity:1;stroke-dasharray:none"
           id="path140"
           inkscape:connector-curvature="0" /><path
           d="m 311.19,203.15 249.05,0"
           style="fill:none;stroke:#e5e5e5;stroke-width:0.43000001;stroke-linecap:butt;stroke-linejoin:round;stroke-miterlimit:10;stroke-opacity:1;stroke-dasharray:none"
           id="path142"
           inkscape:connector-curvature="0" /><path
           d="m 311.19,280.48 249.05,0"
           style="fill:none;stroke:#e5e5e5;stroke-width:0.43000001;stroke-linecap:butt;stroke-linejoin:round;stroke-miterlimit:10;stroke-opacity:1;stroke-dasharray:none"
           id="path144"
           inkscape:connector-curvature="0" /><path
           d="m 322.51,60.04 14.24,6.44 14.24,6.06 14.24,-3.03 11.39,-0.29 17.09,1.89 14.24,2 14.24,-2.51 14.24,-7.69 15.66,-4.99 12.81,1.18 14.24,1.5 14.24,9.48 14.24,-3.2 14.24,1.99 7.12,1.85 1.43,0.36 1.42,0.24 1.42,0.4 1.43,1.07 1.42,0.81 1.43,0.55 1.42,1.14 1.42,0.89 1.43,0.92 1.42,0.92 1.42,1.21 1.43,1.4 1.42,2.65 1.43,1.86 0,-36.66 -1.43,0 -1.42,0 -1.43,0 -1.42,0 -1.42,0 -1.43,0 -1.42,0 -1.42,0 -1.43,0 -1.42,0 -1.43,0 -1.42,0 -1.42,0 -1.43,0 -7.12,0 -14.24,0 -14.24,0 -14.24,0 -14.24,0 -12.81,0 -15.66,0 -14.24,0 -14.24,0 -14.24,0 -17.09,0 -11.39,0 -14.24,0 -14.24,0 -14.24,0 0,11.56 z"
           style="fill:#ac673e;fill-opacity:1;fill-rule:nonzero;stroke:none"
           id="path146"
           inkscape:connector-curvature="0" /><path
           d="m 322.51,60.04 14.24,6.44 14.24,6.06 14.24,-3.03 11.39,-0.29 17.09,10.95 14.24,7.49 14.24,-8.68 14.24,-8.3 15.66,-12.76 12.81,9.75 14.24,7.53 14.24,12.18 14.24,-8.08 14.24,1.23 7.12,1.69 1.43,0.31 1.42,0.24 1.42,0.34 1.43,1.17 1.42,1.21 1.43,0.99 1.42,1.9 1.42,1.21 1.43,1.05 1.42,1.07 1.42,1.24 1.43,1.66 1.42,3.09 1.43,2.13 0,-14.69 -1.43,-1.86 -1.42,-2.65 -1.43,-1.4 -1.42,-1.21 -1.42,-0.92 -1.43,-0.92 -1.42,-0.89 -1.42,-1.14 -1.43,-0.55 -1.42,-0.81 -1.43,-1.07 -1.42,-0.4 -1.42,-0.24 -1.43,-0.36 -7.12,-1.85 -14.24,-1.99 -14.24,3.2 -14.24,-9.48 -14.24,-1.5 -12.81,-1.18 -15.66,4.99 -14.24,7.69 -14.24,2.51 -14.24,-2 -17.09,-1.89 -11.39,0.29 -14.24,3.03 -14.24,-6.06 -14.24,-6.44 z"
           style="fill:#666633;fill-opacity:1;fill-rule:nonzero;stroke:none"
           id="path148"
           inkscape:connector-curvature="0" /><path
           d="m 322.51,60.04 14.24,6.44 14.24,6.06 14.24,-3.02 11.39,-0.28 17.09,11.02 14.24,7.61 14.24,-8.52 14.24,-8.39 15.66,-12.9 12.81,9.84 14.24,7.55 14.24,16.65 14.24,2.14 14.24,17.86 7.12,2.51 1.43,0.52 1.42,0.16 1.42,0.29 1.43,1.19 1.42,0.99 1.43,1.1 1.42,1.81 1.42,0.67 1.43,0.42 1.42,0.39 1.42,0.5 1.43,1.11 1.42,2.61 1.43,1.79 0,-28.33 -1.43,-2.13 -1.42,-3.09 -1.43,-1.66 -1.42,-1.24 -1.42,-1.07 -1.43,-1.05 -1.42,-1.21 -1.42,-1.9 -1.43,-0.99 -1.42,-1.21 -1.43,-1.17 -1.42,-0.34 -1.42,-0.24 -1.43,-0.31 -7.12,-1.69 -14.24,-1.23 -14.24,8.08 -14.24,-12.18 -14.24,-7.53 -12.81,-9.75 -15.66,12.76 -14.24,8.3 -14.24,8.68 -14.24,-7.49 -17.09,-10.95 -11.39,0.29 -14.24,3.03 -14.24,-6.06 -14.24,-6.44 z"
           style="fill:#aa8959;fill-opacity:1;fill-rule:nonzero;stroke:none"
           id="path150"
           inkscape:connector-curvature="0" /><path
           d="m 322.51,60.04 14.24,6.44 14.24,6.06 14.24,-3.02 11.39,-0.28 17.09,13.65 14.24,10.89 14.24,-4.65 14.24,-11.1 15.66,-16.2 12.81,11.7 14.24,7.05 14.24,22.98 14.24,2.27 14.24,15.98 7.12,29.72 1.43,0.25 1.42,0.75 1.42,0.73 1.43,2.27 1.42,2.68 1.43,3.48 1.42,4.06 1.42,1.91 1.43,1.83 1.42,1.97 1.42,3.44 1.43,4.31 1.42,6.86 1.43,6.1 0,-64.01 -1.43,-1.79 -1.42,-2.61 -1.43,-1.11 -1.42,-0.5 -1.42,-0.39 -1.43,-0.42 -1.42,-0.67 -1.42,-1.81 -1.43,-1.1 -1.42,-0.99 -1.43,-1.19 -1.42,-0.29 -1.42,-0.16 -1.43,-0.52 -7.12,-2.51 L 507.62,94.24 493.38,92.1 479.14,75.45 464.9,67.9 l -12.81,-9.84 -15.66,12.9 -14.24,8.39 -14.24,8.52 -14.24,-7.61 -17.09,-11.02 -11.39,0.28 -14.24,3.02 -14.24,-6.06 -14.24,-6.44 z"
           style="fill:#e5dbcd;fill-opacity:1;fill-rule:nonzero;stroke:none"
           id="path152"
           inkscape:connector-curvature="0" /><path
           d="m 311.19,37.19 249.05,0 0,248.33 -249.05,0 0,-248.33 z"
           style="fill:none;stroke:#7f7f7f;stroke-width:1.05999994;stroke-linecap:round;stroke-linejoin:round;stroke-miterlimit:10;stroke-opacity:1;stroke-dasharray:none"
           id="path154"
           inkscape:connector-curvature="0" /></g></g><g
       id="g156"
       transform="translate(17.6,-6.4)" /><text
       id="text162"
       transform="scale(1,-1)"
       x="176.12"
       y="-815.26001"><tspan
         id="tspan164"
         sodipodi:role="line"
         y="-815.26001"
         x="176.12 182.45 184.98 187.50999 193.12 202.42 207.98 213.46001 219.60001"
         style="font-size:10px;font-variant:normal;font-weight:normal;writing-mode:lr-tb;fill:#000000;fill-opacity:1;fill-rule:nonzero;stroke:none;font-family:Open Sans;-inkscape-font-specification:OpenSans">Allemagne</tspan></text>
<g
       id="g166"
       transform="translate(17.6,-6.4)" /><text
       id="text172"
       transform="scale(1,-1)"
       x="442.04001"
       y="-815.26001"><tspan
         id="tspan174"
         sodipodi:role="line"
         y="-815.26001"
         x="442.04001 444.82999 448.35999 453.92001 456.45001 458.98001"
         style="font-size:10px;font-variant:normal;font-weight:normal;writing-mode:lr-tb;fill:#000000;fill-opacity:1;fill-rule:nonzero;stroke:none;font-family:Open Sans;-inkscape-font-specification:OpenSans">Italie</tspan></text>
<g
       id="g176"
       transform="translate(17.6,-6.4)" /><text
       id="text182"
       transform="scale(1,-1)"
       x="180.98"
       y="-548.98999"><tspan
         id="tspan184"
         sodipodi:role="line"
         y="-548.98999"
         x="180.98 187 193.03999 197.12 200.64999 206.78999 212.27 217.83"
         style="font-size:10px;font-variant:normal;font-weight:normal;writing-mode:lr-tb;fill:#000000;fill-opacity:1;fill-rule:nonzero;stroke:none;font-family:Open Sans;-inkscape-font-specification:OpenSans">Portugal</tspan></text>
<g
       id="g186"
       transform="translate(17.6,-6.4)" /><text
       id="text192"
       transform="scale(1,-1)"
       x="433.69"
       y="-548.98999"><tspan
         id="tspan194"
         sodipodi:role="line"
         y="-548.98999"
         x="433.69 439.25 444.01999 450.14999 455.70999 461.19 467.32999"
         style="font-size:10px;font-variant:normal;font-weight:normal;writing-mode:lr-tb;fill:#000000;fill-opacity:1;fill-rule:nonzero;stroke:none;font-family:Open Sans;-inkscape-font-specification:OpenSans">Espagne</tspan></text>
<g
       id="g196"
       transform="translate(17.6,-6.4)" /><text
       id="text202"
       transform="scale(1,-1)"
       x="165"
       y="-282.72"><tspan
         id="tspan204"
         sodipodi:role="line"
         y="-282.72"
         x="165 170.56 175.8 181.52 186.62 192.66 198.8 204.28 210.32001 215.09 217.62 223.17999 228.19 230.72"
         style="font-size:10px;font-variant:normal;font-weight:normal;writing-mode:lr-tb;fill:#000000;fill-opacity:1;fill-rule:nonzero;stroke:none;font-family:Open Sans;-inkscape-font-specification:OpenSans">Ex−Yougoslavie</tspan></text>
<g
       id="g206"
       transform="translate(17.6,-6.4)" /><text
       id="text212"
       transform="scale(1,-1)"
       x="404.64001"
       y="-282.72"><tspan
         id="tspan214"
         sodipodi:role="line"
         y="-282.72"
         x="404.64001 410.97 417.10999 420.64001 424.51999 430.13 432.73001 438.86002 444.42001 449.45999 454.23001 456.82999 462.44 468.57999 472.45999 478.5 484.63 490.23999 495.85001"
         style="font-size:10px;font-variant:normal;font-weight:normal;writing-mode:lr-tb;fill:#000000;fill-opacity:1;fill-rule:nonzero;stroke:none;font-family:Open Sans;-inkscape-font-specification:OpenSans">Autre pays européen</tspan></text>
<g
       id="g216"
       transform="translate(17.6,-6.4)" /><g
       id="g218"
       transform="translate(17.6,-6.4)" /><g
       id="g220"
       transform="translate(17.6,-6.4)"><text
   transform="matrix(1,0,0,-1,22.97,577.45)"
   id="text222"><tspan
     style="font-size:10px;font-variant:normal;font-weight:normal;writing-mode:lr-tb;fill:#000000;fill-opacity:1;fill-rule:nonzero;stroke:none;font-family:Open Sans;-inkscape-font-specification:OpenSans"
     x="0 5.7199998 11.33 17.049999 22.77"
     y="0"
     sodipodi:role="line"
     id="tspan224">0e+00</tspan></text>

<text
   transform="matrix(1,0,0,-1,22.97,654.78)"
   id="text226"><tspan
     style="font-size:10px;font-variant:normal;font-weight:normal;writing-mode:lr-tb;fill:#000000;fill-opacity:1;fill-rule:nonzero;stroke:none;font-family:Open Sans;-inkscape-font-specification:OpenSans"
     x="0 5.7199998 11.33 17.049999 22.77"
     y="0"
     sodipodi:role="line"
     id="tspan228">2e+05</tspan></text>

<text
   transform="matrix(1,0,0,-1,22.97,732.12)"
   id="text230"><tspan
     style="font-size:10px;font-variant:normal;font-weight:normal;writing-mode:lr-tb;fill:#000000;fill-opacity:1;fill-rule:nonzero;stroke:none;font-family:Open Sans;-inkscape-font-specification:OpenSans"
     x="0 5.7199998 11.33 17.049999 22.77"
     y="0"
     sodipodi:role="line"
     id="tspan232">4e+05</tspan></text>

<text
   transform="matrix(1,0,0,-1,22.97,809.45)"
   id="text234"><tspan
     style="font-size:10px;font-variant:normal;font-weight:normal;writing-mode:lr-tb;fill:#000000;fill-opacity:1;fill-rule:nonzero;stroke:none;font-family:Open Sans;-inkscape-font-specification:OpenSans"
     x="0 5.7199998 11.33 17.049999 22.77"
     y="0"
     sodipodi:role="line"
     id="tspan236">6e+05</tspan></text>

</g><g
       id="g238"
       transform="translate(17.6,-6.4)" /><g
       id="g240"
       transform="translate(17.6,-6.4)"><path
         d="m 54.29,581.02 4.25,0"
         style="fill:none;stroke:#000000;stroke-width:1.05999994;stroke-linecap:butt;stroke-linejoin:round;stroke-miterlimit:10;stroke-opacity:1;stroke-dasharray:none"
         id="path242"
         inkscape:connector-curvature="0" /><path
         d="m 54.29,658.35 4.25,0"
         style="fill:none;stroke:#000000;stroke-width:1.05999994;stroke-linecap:butt;stroke-linejoin:round;stroke-miterlimit:10;stroke-opacity:1;stroke-dasharray:none"
         id="path244"
         inkscape:connector-curvature="0" /><path
         d="m 54.29,735.69 4.25,0"
         style="fill:none;stroke:#000000;stroke-width:1.05999994;stroke-linecap:butt;stroke-linejoin:round;stroke-miterlimit:10;stroke-opacity:1;stroke-dasharray:none"
         id="path246"
         inkscape:connector-curvature="0" /><path
         d="m 54.29,813.02 4.25,0"
         style="fill:none;stroke:#000000;stroke-width:1.05999994;stroke-linecap:butt;stroke-linejoin:round;stroke-miterlimit:10;stroke-opacity:1;stroke-dasharray:none"
         id="path248"
         inkscape:connector-curvature="0" /></g><g
       id="g250"
       transform="translate(17.6,-6.4)" /><g
       id="g252"
       transform="translate(17.6,-6.4)" /><g
       id="g254"
       transform="translate(17.6,-6.4)" /><g
       id="g256"
       transform="translate(17.6,-6.4)" /><g
       id="g258"
       transform="translate(17.6,-6.4)" /><g
       id="g260"
       transform="translate(17.6,-6.4)" /><g
       id="g262"
       transform="translate(17.6,-6.4)" /><g
       id="g264"
       transform="translate(17.6,-6.4)"><text
   transform="matrix(1,0,0,-1,22.97,311.18)"
   id="text266"><tspan
     style="font-size:10px;font-variant:normal;font-weight:normal;writing-mode:lr-tb;fill:#000000;fill-opacity:1;fill-rule:nonzero;stroke:none;font-family:Open Sans;-inkscape-font-specification:OpenSans"
     x="0 5.7199998 11.33 17.049999 22.77"
     y="0"
     sodipodi:role="line"
     id="tspan268">0e+00</tspan></text>

<text
   transform="matrix(1,0,0,-1,22.97,388.52)"
   id="text270"><tspan
     style="font-size:10px;font-variant:normal;font-weight:normal;writing-mode:lr-tb;fill:#000000;fill-opacity:1;fill-rule:nonzero;stroke:none;font-family:Open Sans;-inkscape-font-specification:OpenSans"
     x="0 5.7199998 11.33 17.049999 22.77"
     y="0"
     sodipodi:role="line"
     id="tspan272">2e+05</tspan></text>

<text
   transform="matrix(1,0,0,-1,22.97,465.85)"
   id="text274"><tspan
     style="font-size:10px;font-variant:normal;font-weight:normal;writing-mode:lr-tb;fill:#000000;fill-opacity:1;fill-rule:nonzero;stroke:none;font-family:Open Sans;-inkscape-font-specification:OpenSans"
     x="0 5.7199998 11.33 17.049999 22.77"
     y="0"
     sodipodi:role="line"
     id="tspan276">4e+05</tspan></text>

<text
   transform="matrix(1,0,0,-1,22.97,543.18)"
   id="text278"><tspan
     style="font-size:10px;font-variant:normal;font-weight:normal;writing-mode:lr-tb;fill:#000000;fill-opacity:1;fill-rule:nonzero;stroke:none;font-family:Open Sans;-inkscape-font-specification:OpenSans"
     x="0 5.7199998 11.33 17.049999 22.77"
     y="0"
     sodipodi:role="line"
     id="tspan280">6e+05</tspan></text>

</g><g
       id="g282"
       transform="translate(17.6,-6.4)" /><g
       id="g284"
       transform="translate(17.6,-6.4)"><path
         d="m 54.29,314.75 4.25,0"
         style="fill:none;stroke:#000000;stroke-width:1.05999994;stroke-linecap:butt;stroke-linejoin:round;stroke-miterlimit:10;stroke-opacity:1;stroke-dasharray:none"
         id="path286"
         inkscape:connector-curvature="0" /><path
         d="m 54.29,392.09 4.25,0"
         style="fill:none;stroke:#000000;stroke-width:1.05999994;stroke-linecap:butt;stroke-linejoin:round;stroke-miterlimit:10;stroke-opacity:1;stroke-dasharray:none"
         id="path288"
         inkscape:connector-curvature="0" /><path
         d="m 54.29,469.42 4.25,0"
         style="fill:none;stroke:#000000;stroke-width:1.05999994;stroke-linecap:butt;stroke-linejoin:round;stroke-miterlimit:10;stroke-opacity:1;stroke-dasharray:none"
         id="path290"
         inkscape:connector-curvature="0" /><path
         d="m 54.29,546.75 4.25,0"
         style="fill:none;stroke:#000000;stroke-width:1.05999994;stroke-linecap:butt;stroke-linejoin:round;stroke-miterlimit:10;stroke-opacity:1;stroke-dasharray:none"
         id="path292"
         inkscape:connector-curvature="0" /></g><g
       id="g294"
       transform="translate(17.6,-6.4)" /><g
       id="g296"
       transform="translate(17.6,-6.4)" /><g
       id="g298"
       transform="translate(17.6,-6.4)" /><g
       id="g300"
       transform="translate(17.6,-6.4)" /><g
       id="g302"
       transform="translate(17.6,-6.4)" /><g
       id="g304"
       transform="translate(17.6,-6.4)" /><g
       id="g306"
       transform="translate(17.6,-6.4)" /><g
       id="g308"
       transform="translate(17.6,-6.4)"><text
   transform="matrix(1,0,0,-1,22.97,44.91)"
   id="text310"><tspan
     style="font-size:10px;font-variant:normal;font-weight:normal;writing-mode:lr-tb;fill:#000000;fill-opacity:1;fill-rule:nonzero;stroke:none;font-family:Open Sans;-inkscape-font-specification:OpenSans"
     x="0 5.7199998 11.33 17.049999 22.77"
     y="0"
     sodipodi:role="line"
     id="tspan312">0e+00</tspan></text>

<text
   transform="matrix(1,0,0,-1,22.97,122.25)"
   id="text314"><tspan
     style="font-size:10px;font-variant:normal;font-weight:normal;writing-mode:lr-tb;fill:#000000;fill-opacity:1;fill-rule:nonzero;stroke:none;font-family:Open Sans;-inkscape-font-specification:OpenSans"
     x="0 5.7199998 11.33 17.049999 22.77"
     y="0"
     sodipodi:role="line"
     id="tspan316">2e+05</tspan></text>

<text
   transform="matrix(1,0,0,-1,22.97,199.58)"
   id="text318"><tspan
     style="font-size:10px;font-variant:normal;font-weight:normal;writing-mode:lr-tb;fill:#000000;fill-opacity:1;fill-rule:nonzero;stroke:none;font-family:Open Sans;-inkscape-font-specification:OpenSans"
     x="0 5.7199998 11.33 17.049999 22.77"
     y="0"
     sodipodi:role="line"
     id="tspan320">4e+05</tspan></text>

<text
   transform="matrix(1,0,0,-1,22.97,276.91)"
   id="text322"><tspan
     style="font-size:10px;font-variant:normal;font-weight:normal;writing-mode:lr-tb;fill:#000000;fill-opacity:1;fill-rule:nonzero;stroke:none;font-family:Open Sans;-inkscape-font-specification:OpenSans"
     x="0 5.7199998 11.33 17.049999 22.77"
     y="0"
     sodipodi:role="line"
     id="tspan324">6e+05</tspan></text>

</g><g
       id="g326"
       transform="translate(17.6,-6.4)" /><g
       id="g328"
       transform="translate(17.6,-6.4)"><path
         d="m 54.29,48.48 4.25,0"
         style="fill:none;stroke:#000000;stroke-width:1.05999994;stroke-linecap:butt;stroke-linejoin:round;stroke-miterlimit:10;stroke-opacity:1;stroke-dasharray:none"
         id="path330"
         inkscape:connector-curvature="0" /><path
         d="m 54.29,125.82 4.25,0"
         style="fill:none;stroke:#000000;stroke-width:1.05999994;stroke-linecap:butt;stroke-linejoin:round;stroke-miterlimit:10;stroke-opacity:1;stroke-dasharray:none"
         id="path332"
         inkscape:connector-curvature="0" /><path
         d="m 54.29,203.15 4.25,0"
         style="fill:none;stroke:#000000;stroke-width:1.05999994;stroke-linecap:butt;stroke-linejoin:round;stroke-miterlimit:10;stroke-opacity:1;stroke-dasharray:none"
         id="path334"
         inkscape:connector-curvature="0" /><path
         d="m 54.29,280.48 4.25,0"
         style="fill:none;stroke:#000000;stroke-width:1.05999994;stroke-linecap:butt;stroke-linejoin:round;stroke-miterlimit:10;stroke-opacity:1;stroke-dasharray:none"
         id="path336"
         inkscape:connector-curvature="0" /></g><g
       id="g338"
       transform="translate(17.6,-6.4)" /><g
       id="g340"
       transform="translate(17.6,-6.4)" /><g
       id="g342"
       transform="translate(17.6,-6.4)" /><g
       id="g344"
       transform="translate(17.6,-6.4)" /><g
       id="g346"
       transform="translate(17.6,-6.4)" /><g
       id="g348"
       transform="translate(17.6,-6.4)" /><g
       id="g350"
       transform="translate(17.6,-6.4)" /><g
       id="g352"
       transform="translate(17.6,-6.4)" /><g
       id="g354"
       transform="translate(17.6,-6.4)" /><g
       id="g356"
       transform="translate(17.6,-6.4)" /><g
       id="g358"
       transform="translate(17.6,-6.4)" /><g
       id="g360"
       transform="translate(17.6,-6.4)" /><g
       id="g362"
       transform="translate(17.6,-6.4)" /><g
       id="g364"
       transform="translate(17.6,-6.4)" /><g
       id="g366"
       transform="translate(17.6,-6.4)" /><g
       id="g368"
       transform="translate(17.6,-6.4)"><path
         d="m 69.86,32.94 0,4.25"
         style="fill:none;stroke:#000000;stroke-width:1.05999994;stroke-linecap:butt;stroke-linejoin:round;stroke-miterlimit:10;stroke-opacity:1;stroke-dasharray:none"
         id="path370"
         inkscape:connector-curvature="0" /><path
         d="m 141.06,32.94 0,4.25"
         style="fill:none;stroke:#000000;stroke-width:1.05999994;stroke-linecap:butt;stroke-linejoin:round;stroke-miterlimit:10;stroke-opacity:1;stroke-dasharray:none"
         id="path372"
         inkscape:connector-curvature="0" /><path
         d="m 212.26,32.94 0,4.25"
         style="fill:none;stroke:#000000;stroke-width:1.05999994;stroke-linecap:butt;stroke-linejoin:round;stroke-miterlimit:10;stroke-opacity:1;stroke-dasharray:none"
         id="path374"
         inkscape:connector-curvature="0" /><path
         d="m 283.46,32.94 0,4.25"
         style="fill:none;stroke:#000000;stroke-width:1.05999994;stroke-linecap:butt;stroke-linejoin:round;stroke-miterlimit:10;stroke-opacity:1;stroke-dasharray:none"
         id="path376"
         inkscape:connector-curvature="0" /></g><g
       id="g378"
       transform="translate(17.6,-6.4)" /><g
       id="g380"
       transform="translate(17.6,-6.4)"><text
   transform="matrix(1,0,0,-1,58.42,22.97)"
   id="text382"><tspan
     style="font-size:10px;font-variant:normal;font-weight:normal;writing-mode:lr-tb;fill:#000000;fill-opacity:1;fill-rule:nonzero;stroke:none;font-family:Open Sans;-inkscape-font-specification:OpenSans"
     x="0 5.7199998 11.44 17.16"
     y="0"
     sodipodi:role="line"
     id="tspan384">1850</tspan></text>

<text
   transform="matrix(1,0,0,-1,129.62,22.97)"
   id="text386"><tspan
     style="font-size:10px;font-variant:normal;font-weight:normal;writing-mode:lr-tb;fill:#000000;fill-opacity:1;fill-rule:nonzero;stroke:none;font-family:Open Sans;-inkscape-font-specification:OpenSans"
     x="0 5.7199998 11.44 17.16"
     y="0"
     sodipodi:role="line"
     id="tspan388">1900</tspan></text>

<text
   transform="matrix(1,0,0,-1,200.82,22.97)"
   id="text390"><tspan
     style="font-size:10px;font-variant:normal;font-weight:normal;writing-mode:lr-tb;fill:#000000;fill-opacity:1;fill-rule:nonzero;stroke:none;font-family:Open Sans;-inkscape-font-specification:OpenSans"
     x="0 5.7199998 11.44 17.16"
     y="0"
     sodipodi:role="line"
     id="tspan392">1950</tspan></text>

<text
   transform="matrix(1,0,0,-1,272.02,22.97)"
   id="text394"><tspan
     style="font-size:10px;font-variant:normal;font-weight:normal;writing-mode:lr-tb;fill:#000000;fill-opacity:1;fill-rule:nonzero;stroke:none;font-family:Open Sans;-inkscape-font-specification:OpenSans"
     x="0 5.7199998 11.44 17.16"
     y="0"
     sodipodi:role="line"
     id="tspan396">2000</tspan></text>

</g><g
       id="g398"
       transform="translate(17.6,-6.4)" /><g
       id="g400"
       transform="translate(17.6,-6.4)" /><g
       id="g402"
       transform="translate(17.6,-6.4)" /><g
       id="g404"
       transform="translate(17.6,-6.4)" /><g
       id="g406"
       transform="translate(17.6,-6.4)" /><g
       id="g408"
       transform="translate(17.6,-6.4)"><path
         d="m 322.51,32.94 0,4.25"
         style="fill:none;stroke:#000000;stroke-width:1.05999994;stroke-linecap:butt;stroke-linejoin:round;stroke-miterlimit:10;stroke-opacity:1;stroke-dasharray:none"
         id="path410"
         inkscape:connector-curvature="0" /><path
         d="m 393.71,32.94 0,4.25"
         style="fill:none;stroke:#000000;stroke-width:1.05999994;stroke-linecap:butt;stroke-linejoin:round;stroke-miterlimit:10;stroke-opacity:1;stroke-dasharray:none"
         id="path412"
         inkscape:connector-curvature="0" /><path
         d="m 464.9,32.94 0,4.25"
         style="fill:none;stroke:#000000;stroke-width:1.05999994;stroke-linecap:butt;stroke-linejoin:round;stroke-miterlimit:10;stroke-opacity:1;stroke-dasharray:none"
         id="path414"
         inkscape:connector-curvature="0" /><path
         d="m 536.1,32.94 0,4.25"
         style="fill:none;stroke:#000000;stroke-width:1.05999994;stroke-linecap:butt;stroke-linejoin:round;stroke-miterlimit:10;stroke-opacity:1;stroke-dasharray:none"
         id="path416"
         inkscape:connector-curvature="0" /></g><g
       id="g418"
       transform="translate(17.6,-6.4)" /><g
       id="g420"
       transform="translate(17.6,-6.4)"><text
   transform="matrix(1,0,0,-1,311.07,22.97)"
   id="text422"><tspan
     style="font-size:10px;font-variant:normal;font-weight:normal;writing-mode:lr-tb;fill:#000000;fill-opacity:1;fill-rule:nonzero;stroke:none;font-family:Open Sans;-inkscape-font-specification:OpenSans"
     x="0 5.7199998 11.44 17.16"
     y="0"
     sodipodi:role="line"
     id="tspan424">1850</tspan></text>

<text
   transform="matrix(1,0,0,-1,382.27,22.97)"
   id="text426"><tspan
     style="font-size:10px;font-variant:normal;font-weight:normal;writing-mode:lr-tb;fill:#000000;fill-opacity:1;fill-rule:nonzero;stroke:none;font-family:Open Sans;-inkscape-font-specification:OpenSans"
     x="0 5.7199998 11.44 17.16"
     y="0"
     sodipodi:role="line"
     id="tspan428">1900</tspan></text>

<text
   transform="matrix(1,0,0,-1,453.46,22.97)"
   id="text430"><tspan
     style="font-size:10px;font-variant:normal;font-weight:normal;writing-mode:lr-tb;fill:#000000;fill-opacity:1;fill-rule:nonzero;stroke:none;font-family:Open Sans;-inkscape-font-specification:OpenSans"
     x="0 5.7199998 11.44 17.16"
     y="0"
     sodipodi:role="line"
     id="tspan432">1950</tspan></text>

<text
   transform="matrix(1,0,0,-1,524.66,22.97)"
   id="text434"><tspan
     style="font-size:10px;font-variant:normal;font-weight:normal;writing-mode:lr-tb;fill:#000000;fill-opacity:1;fill-rule:nonzero;stroke:none;font-family:Open Sans;-inkscape-font-specification:OpenSans"
     x="0 5.7199998 11.44 17.16"
     y="0"
     sodipodi:role="line"
     id="tspan436">2000</tspan></text>

</g><g
       id="g438"
       transform="translate(17.6,-6.4)" /><g
       id="g440"
       transform="translate(17.6,-6.4)" /><g
       id="g442"
       transform="translate(17.6,-6.4)" /><g
       id="g444"
       transform="translate(17.6,-6.4)" /><g
       id="g446"
       transform="translate(17.6,-6.4)"><text
   transform="matrix(1,0,0,-1,291.49,10.8)"
   id="text448"><tspan
     style="font-size:12px;font-variant:normal;font-weight:normal;writing-mode:lr-tb;fill:#000000;fill-opacity:1;fill-rule:nonzero;stroke:none;font-family:Open Sans;-inkscape-font-specification:OpenSans"
     x="0 7.5960002 14.964 22.332001 29.063999"
     y="0"
     sodipodi:role="line"
     id="tspan450">Année</tspan></text>

</g><g
       id="g452"
       transform="translate(17.6,-6.4)" /><g
       id="g454"
       transform="translate(17.6,-6.4)"><text
   transform="matrix(0,1,1,0,19.37,397.23)"
   id="text456"><tspan
     style="font-size:12px;font-variant:normal;font-weight:normal;writing-mode:lr-tb;fill:#000000;fill-opacity:1;fill-rule:nonzero;stroke:none;font-family:Open Sans;-inkscape-font-specification:OpenSans"
     x="0 7.224 14.472 21.827999 29.195999 32.231998 38.903999 43.139999 46.175999 53.424"
     y="0"
     sodipodi:role="line"
     id="tspan458">Population</tspan></text>

</g><g
       id="g460"
       transform="translate(17.6,-6.4)" /><g
       id="g462"
       transform="translate(17.6,-6.4)" /><g
       id="g464"
       transform="translate(17.6,-6.4)" /><g
       id="g466"
       transform="translate(17.6,-6.4)" /><g
       id="g468"
       transform="translate(17.6,-6.4)" /><g
       id="g474"
       transform="translate(17.6,-6.4)" /><g
       id="g482"
       transform="translate(17.6,-6.4)" /><g
       id="g488"
       transform="translate(17.6,-6.4)" /><g
       id="g494"
       transform="translate(17.6,-6.4)" /><g
       id="g500"
       transform="translate(17.6,-6.4)" /><g
       id="g506"
       transform="translate(17.6,-6.4)" /><g
       id="g512"
       transform="translate(17.6,-6.4)" /><g
       id="g518"
       transform="translate(17.6,-6.4)" /><g
       id="g524"
       transform="translate(17.6,-6.4)" /><g
       id="g530"
       transform="translate(17.6,-6.4)" /><g
       id="g536"
       transform="translate(17.6,-6.4)" /><g
       id="g542"
       transform="translate(17.6,-6.4)" /><g
       id="g544"
       transform="translate(-129.95761,-148.78015)"><path
         d="m 574.52,395.98 17.28,0 0,17.28 -17.28,0 0,-17.28 z"
         style="fill:#ffffff;fill-opacity:1;fill-rule:nonzero;stroke:#cccccc;stroke-width:1.05999994;stroke-linecap:round;stroke-linejoin:round;stroke-miterlimit:10;stroke-opacity:1;stroke-dasharray:none"
         id="path546"
         inkscape:connector-curvature="0" /></g><g
       id="g548"
       transform="translate(17.6,-6.4)" /><g
       id="g550"
       transform="translate(-129.95761,-148.78015)"><path
         d="m 574.52,395.98 17.28,0 0,17.28 -17.28,0 0,-17.28 z"
         style="fill:#ac673e;fill-opacity:1;fill-rule:nonzero;stroke:none"
         id="path552"
         inkscape:connector-curvature="0" /></g><g
       id="g554"
       transform="translate(17.6,-6.4)" /><g
       id="g556"
       transform="translate(-129.95761,-148.78015)"><path
         d="m 574.52,378.7 17.28,0 0,17.28 -17.28,0 0,-17.28 z"
         style="fill:#ffffff;fill-opacity:1;fill-rule:nonzero;stroke:#cccccc;stroke-width:1.05999994;stroke-linecap:round;stroke-linejoin:round;stroke-miterlimit:10;stroke-opacity:1;stroke-dasharray:none"
         id="path558"
         inkscape:connector-curvature="0" /></g><g
       id="g560"
       transform="translate(17.6,-6.4)" /><g
       id="g562"
       transform="translate(-129.95761,-148.78015)"><path
         d="m 574.52,378.7 17.28,0 0,17.28 -17.28,0 0,-17.28 z"
         style="fill:#666633;fill-opacity:1;fill-rule:nonzero;stroke:none"
         id="path564"
         inkscape:connector-curvature="0" /></g><g
       id="g566"
       transform="translate(17.6,-6.4)" /><g
       id="g568"
       transform="translate(-129.95761,-148.78015)"><path
         d="m 574.52,361.42 17.28,0 0,17.28 -17.28,0 0,-17.28 z"
         style="fill:#ffffff;fill-opacity:1;fill-rule:nonzero;stroke:#cccccc;stroke-width:1.05999994;stroke-linecap:round;stroke-linejoin:round;stroke-miterlimit:10;stroke-opacity:1;stroke-dasharray:none"
         id="path570"
         inkscape:connector-curvature="0" /></g><g
       id="g572"
       transform="translate(17.6,-6.4)" /><g
       id="g574"
       transform="translate(-129.95761,-148.78015)"><path
         d="m 574.52,361.42 17.28,0 0,17.28 -17.28,0 0,-17.28 z"
         style="fill:#aa8959;fill-opacity:1;fill-rule:nonzero;stroke:none"
         id="path576"
         inkscape:connector-curvature="0" /></g><g
       id="g578"
       transform="translate(17.6,-6.4)" /><g
       id="g580"
       transform="translate(-129.95761,-148.78015)"><path
         d="m 574.52,344.14 17.28,0 0,17.28 -17.28,0 0,-17.28 z"
         style="fill:#ffffff;fill-opacity:1;fill-rule:nonzero;stroke:#cccccc;stroke-width:1.05999994;stroke-linecap:round;stroke-linejoin:round;stroke-miterlimit:10;stroke-opacity:1;stroke-dasharray:none"
         id="path582"
         inkscape:connector-curvature="0" /></g><g
       id="g584"
       transform="translate(17.6,-6.4)" /><g
       id="g586"
       transform="translate(-129.95761,-148.78015)"><path
         d="m 574.52,344.14 17.28,0 0,17.28 -17.28,0 0,-17.28 z"
         style="fill:#e5dbcd;fill-opacity:1;fill-rule:nonzero;stroke:none"
         id="path588"
         inkscape:connector-curvature="0" /></g><g
       id="g590"
       transform="translate(17.6,-6.4)" /><g
       id="g598"
       transform="translate(17.6,-6.4)" /><g
       id="g606"
       transform="translate(17.6,-6.4)" /><g
       id="g614"
       transform="translate(17.6,-6.4)" /><g
       id="g622"
       transform="translate(17.6,-6.4)" /><g
       id="g630"
       transform="translate(17.6,-6.4)" /><g
       id="g632"
       transform="translate(-129.95761,-148.78015)"><text
   transform="matrix(1,0,0,-1,593.96,401.05)"
   id="text634"><tspan
     style="font-size:10px;font-variant:normal;font-weight:normal;writing-mode:lr-tb;fill:#000000;fill-opacity:1;fill-rule:nonzero;stroke:none;font-family:Open Sans;-inkscape-font-specification:OpenSans"
     x="0 5.1599998 9.04 14.6 20.74 25.5"
     y="0"
     sodipodi:role="line"
     id="tspan636">France</tspan></text>

</g><g
       id="g638"
       transform="translate(17.6,-6.4)" /><g
       id="g640"
       transform="translate(-129.95761,-148.78015)"><text
   transform="matrix(1,0,0,-1,593.96,383.77)"
   id="text642"><tspan
     style="font-size:10px;font-variant:normal;font-weight:normal;writing-mode:lr-tb;fill:#000000;fill-opacity:1;fill-rule:nonzero;stroke:none;font-family:Open Sans;-inkscape-font-specification:OpenSans"
     x="0 6.3299999 12.47 16 20.08 22.610001 27.370001 33.509998"
     y="0"
     sodipodi:role="line"
     id="tspan644">Autriche</tspan></text>

</g><g
       id="g646"
       transform="translate(17.6,-6.4)" /><g
       id="g648"
       transform="translate(-129.95761,-148.78015)"><text
   transform="matrix(1,0,0,-1,593.96,366.49)"
   id="text650"><tspan
     style="font-size:10px;font-variant:normal;font-weight:normal;writing-mode:lr-tb;fill:#000000;fill-opacity:1;fill-rule:nonzero;stroke:none;font-family:Open Sans;-inkscape-font-specification:OpenSans"
     x="0 5.0300002 11.17 15.05 21.18 27.32 29.85"
     y="0"
     sodipodi:role="line"
     id="tspan652">Turquie</tspan></text>

</g><g
       id="g654"
       transform="translate(17.6,-6.4)" /><g
       id="g656"
       transform="translate(-129.95761,-148.78015)"><text
   transform="matrix(1,0,0,-1,593.96,349.21)"
   id="text658"><tspan
     style="font-size:10px;font-variant:normal;font-weight:normal;writing-mode:lr-tb;fill:#000000;fill-opacity:1;fill-rule:nonzero;stroke:none;font-family:Open Sans;-inkscape-font-specification:OpenSans"
     x="0 6.3299999 12.47 16 19.879999 25.49 28.09 34.220001 39.779999 44.82 49.59 52.189999 57.799999 63.939999 67.82 73.860001 79.989998 85.599998 91.209999"
     y="0"
     sodipodi:role="line"
     id="tspan660">Autre pays européen</tspan></text>

</g><g
       id="g662"
       transform="translate(17.6,-6.4)" /><g
       id="g664"
       transform="translate(17.6,-6.4)" /><g
       id="g666"
       transform="translate(17.6,-6.4)" /><g
       id="g668"
       transform="translate(17.6,-6.4)" /><g
       id="g670"
       transform="translate(17.6,-6.4)" /><g
       id="g672"
       transform="translate(17.6,-6.4)" /><g
       id="g674"
       transform="translate(17.6,-6.4)" /><g
       id="g676"
       transform="translate(17.6,-6.4)" /><g
       id="g678"
       transform="translate(17.6,-6.4)" /><g
       id="g680"
       transform="translate(-52.295708,0.07182478)"><text
   transform="scale(1,-1)"
   id="text682"
   sodipodi:linespacing="125%"
   x="65.670013"
   y="-839.19995"
   style="line-height:125%"><tspan
     style="font-size:22.39999962px;font-style:normal;font-variant:normal;font-weight:bold;font-stretch:normal;text-align:start;line-height:125%;writing-mode:lr-tb;text-anchor:start;fill:#000000;fill-opacity:1;fill-rule:nonzero;stroke:none;font-family:Open Sans;-inkscape-font-specification:Open Sans Bold"
     sodipodi:role="line"
     id="tspan684"
     x="65.670013"
     y="-839.19995">Population d'Europe résidant en Suisse de 1850−2009</tspan></text>

</g><g
       id="g686"
       transform="translate(17.6,-6.4)" /><g
       id="g688"
       transform="translate(17.6,-6.4)" /></g></svg>